<svg width="100" height="100" viewBox="0 0 100 100" fill="none" xmlns="http://www.w3.org/2000/svg">
<circle cx="50" cy="50" r="50" fill="black"/>
<path d="M60.8431 62.9721H38.5764C38.2248 62.9721 37.9395 62.711 37.9395 62.3918V23.861C37.9395 13.5123 44.7876 3 49.7097 3C54.6318 3 61.48 13.5123 61.48 23.861V62.3918C61.48 62.711 61.1959 62.9721 60.8431 62.9721ZM39.2133 61.8116H60.2062V23.861C60.2062 13.8953 53.5644 4.16043 49.7097 4.16043C45.8551 4.16043 39.2133 13.8953 39.2133 23.861V61.8116Z" fill="#4FC3F7"/>
<path d="M60.8433 83.2501H54.1633C53.8117 83.2501 53.5264 82.9902 53.5264 82.6699V78.6154C53.5264 78.2951 53.8117 78.0352 54.1633 78.0352H58.6154C58.8561 78.0352 59.0765 78.1582 59.1848 78.3554L61.4127 82.41C61.5121 82.5898 61.5006 82.8033 61.386 82.9739C61.2688 83.1457 61.065 83.2501 60.8433 83.2501ZM54.8002 82.0897H59.8128L58.2217 79.1956H54.8002V82.0897Z" fill="#4FC3F7"/>
<path d="M60.843 75.1378C60.6914 75.1378 60.5449 75.0891 60.4277 74.9986C60.2876 74.8872 60.2061 74.727 60.2061 74.5576V70.5007C60.2061 70.2141 60.4353 69.9704 60.7462 69.9275L89.6852 65.8729C89.87 65.8486 90.0559 65.8962 90.196 66.0052C90.3374 66.1155 90.419 66.2756 90.419 66.4462V70.5007C90.419 70.7862 90.1884 71.0299 89.8789 71.074L60.9398 75.1308C60.9079 75.1355 60.8761 75.1378 60.843 75.1378ZM61.4799 70.9986V73.8811L89.1451 70.0017V67.1216L61.4799 70.9986Z" fill="#4FC3F7"/>
<path d="M38.576 71.0811C38.5442 71.0811 38.511 71.0788 38.4792 71.0742L9.54011 67.0196C9.22929 66.9755 9 66.7318 9 66.4464V58.335C9 58.1714 9.07643 58.0147 9.21146 57.9045L31.3597 39.7473L37.9798 23.6579C38.0881 23.3945 38.3862 23.2437 38.6906 23.2901C38.9938 23.34 39.2142 23.5802 39.2142 23.861V61.8116H40.8052C41.0625 61.8116 41.2956 61.952 41.3937 62.1702C41.4931 62.3872 41.4383 62.6355 41.2562 62.8026C41.2371 62.82 39.2142 64.7359 39.2142 68.476V70.5021C39.2142 70.6715 39.1339 70.8316 38.9926 70.9419C38.8741 71.0312 38.7263 71.0811 38.576 71.0811ZM10.2738 65.9474L37.9391 69.8232V68.4748C37.9391 65.8348 38.8346 64.0014 39.5352 62.9721H38.576C38.2244 62.9721 37.9391 62.711 37.9391 62.3918V27.0615L32.4972 40.2869C32.4616 40.3739 32.403 40.4528 32.3265 40.5143L10.2738 58.5926V65.9474Z" fill="#4FC3F7"/>
<path d="M54.1626 85.2779H45.2546C45.0495 85.2779 44.8572 85.1886 44.7374 85.0365C44.6177 84.8857 44.5846 84.6907 44.6508 84.5144L46.88 78.4314C46.9106 78.3467 46.9628 78.2678 47.0329 78.2051L49.2583 76.1744C49.4978 75.9562 49.9219 75.9562 50.1602 76.1744L52.3868 78.2051C52.4569 78.2689 52.5091 78.3467 52.5384 78.4314L54.7676 84.5144C54.8326 84.6907 54.7995 84.8857 54.681 85.0365C54.56 85.1886 54.3664 85.2779 54.1626 85.2779ZM46.1386 84.1175H53.2798L51.3792 78.9269L49.7092 77.4056L48.0405 78.928L46.1386 84.1175Z" fill="#4FC3F7"/>
<path d="M45.255 83.2495H38.5763C38.3559 83.2495 38.1508 83.145 38.0349 82.9744C37.919 82.8038 37.9075 82.5903 38.0068 82.4105L40.2348 78.3559C40.3431 78.1587 40.5634 78.0356 40.8042 78.0356H45.255C45.6066 78.0356 45.8919 78.2956 45.8919 78.6159V82.6704C45.8919 82.9895 45.6066 83.2495 45.255 83.2495ZM39.6068 82.089H44.6181V79.1949H41.1978L39.6068 82.089Z" fill="#4FC3F7"/>
<path d="M38.576 75.1377C38.5442 75.1377 38.511 75.1354 38.4792 75.1308L9.54011 71.0739C9.22929 71.0298 9 70.7861 9 70.5007V66.4461C9 66.2767 9.08025 66.1154 9.22165 66.0052C9.36304 65.8949 9.54902 65.8462 9.73373 65.8729L38.6728 69.9274C38.9836 69.9704 39.2129 70.2141 39.2129 70.5007V74.5575C39.2129 74.7269 39.1327 74.8871 38.9913 74.9985C38.8741 75.089 38.7263 75.1377 38.576 75.1377ZM10.2738 70.0017L37.9391 73.881V70.9985L10.2738 67.1215V70.0017Z" fill="#4FC3F7"/>
<path d="M47.4843 79.1942H38.5764C38.2248 79.1942 37.9395 78.9343 37.9395 78.614V68.4742C37.9395 64.2271 40.2553 62.0687 40.3547 61.9805C40.4744 61.8714 40.6362 61.811 40.8056 61.811H49.7097C50.0613 61.811 50.3466 62.0698 50.3466 62.3912C50.3466 62.7104 50.0613 62.9715 49.7097 62.9715C48.8333 62.9715 48.1213 63.6213 48.1213 64.4197V74.5572C48.1213 75.3555 48.8346 76.0031 49.7097 76.0031C49.967 76.0031 50.1989 76.1446 50.2982 76.3616C50.3963 76.5786 50.3428 76.827 50.1607 76.9941L47.9353 79.0248C47.8155 79.1327 47.6538 79.1942 47.4843 79.1942ZM39.2133 78.0338H47.2206L48.4614 76.9012C47.5073 76.4788 46.8474 75.5865 46.8474 74.556V64.4185C46.8474 63.8824 47.0258 63.3846 47.3302 62.9703H41.0935C40.612 63.5145 39.212 65.3631 39.212 68.4731L39.2133 78.0338Z" fill="#4FC3F7"/>
<path d="M60.8425 79.1942H51.9346C51.7652 79.1942 51.6021 79.1327 51.4836 79.0248L49.2582 76.9941C49.0761 76.827 49.0226 76.5786 49.1207 76.3616C49.22 76.1446 49.4519 76.0031 49.7092 76.0031C50.5856 76.0031 51.2977 75.3544 51.2977 74.5572V64.4197C51.2977 63.6213 50.5843 62.9715 49.7092 62.9715C49.3576 62.9715 49.0723 62.7104 49.0723 62.3912C49.0723 62.0698 49.3576 61.811 49.7092 61.811H58.6146C58.7827 61.811 58.9458 61.8725 59.0655 61.9805C59.1636 62.0687 61.4807 64.2271 61.4807 68.4742V78.614C61.4795 78.9343 61.1954 79.1942 60.8425 79.1942ZM52.1995 78.0338H60.2056V68.4742C60.2056 65.3666 58.8069 63.518 58.3242 62.9715H52.0874C52.3919 63.3857 52.5702 63.8836 52.5702 64.4197V74.5572C52.5702 75.5876 51.9104 76.4788 50.9563 76.9024L52.1995 78.0338Z" fill="#4FC3F7"/>
<path d="M60.8428 71.081C60.6913 71.081 60.5448 71.0311 60.4276 70.9406C60.2875 70.8303 60.2059 70.6702 60.2059 70.5008V68.4746C60.2059 64.7033 58.1856 62.8199 58.164 62.8013C57.9805 62.6342 57.9257 62.3859 58.0264 62.1689C58.1245 61.9507 58.3576 61.8103 58.6149 61.8103H60.2059V23.8608C60.2059 23.58 60.4263 23.3398 60.7282 23.2899C61.0339 23.2423 61.3307 23.3943 61.4403 23.6578L68.0604 39.7471L90.2087 57.9043C90.3424 58.0145 90.4188 58.1712 90.4188 58.3348V66.4462C90.4188 66.7317 90.1883 66.9754 89.8787 67.0195L60.9397 71.074C60.9078 71.0786 60.876 71.081 60.8428 71.081ZM59.8836 62.9719C60.5843 64.0012 61.4798 65.8347 61.4798 68.4746V69.8231L89.145 65.9472V58.5924L67.0923 40.5141C67.0146 40.4515 66.9585 40.3737 66.9203 40.2867L61.4798 27.0613V62.3905C61.4798 62.7096 61.1944 62.9707 60.8428 62.9707L59.8836 62.9719Z" fill="#4FC3F7"/>
<path d="M43.2129 23.8779C43.5599 23.8779 43.9167 24.069 44.2051 24.4629C44.4932 24.8566 44.6865 25.4253 44.6865 26.0752C44.6865 26.7249 44.4931 27.2928 44.2051 27.6865C43.9167 28.0806 43.5599 28.2725 43.2129 28.2725C42.8659 28.2724 42.509 28.0805 42.2207 27.6865C41.9327 27.2929 41.7393 26.7248 41.7393 26.0752C41.7393 25.4253 41.9326 24.8566 42.2207 24.4629C42.509 24.069 42.8659 23.878 43.2129 23.8779Z" fill="#4FC3F7" stroke="#4FC3F7"/>
<path d="M43.2129 40.6602C43.5599 40.6602 43.9167 40.8512 44.2051 41.2451C44.4932 41.6388 44.6865 42.2075 44.6865 42.8574C44.6865 43.5071 44.4931 44.0751 44.2051 44.4688C43.9167 44.8628 43.5599 45.0547 43.2129 45.0547C42.8659 45.0546 42.509 44.8628 42.2207 44.4688C41.9327 44.0751 41.7393 43.5071 41.7393 42.8574C41.7393 42.2075 41.9326 41.6388 42.2207 41.2451C42.509 40.8512 42.8659 40.6602 43.2129 40.6602Z" fill="#4FC3F7" stroke="#4FC3F7"/>
<path d="M43.2129 32.2686C43.5599 32.2686 43.9167 32.4596 44.2051 32.8535C44.4932 33.2472 44.6865 33.8159 44.6865 34.4658C44.6865 35.1155 44.4931 35.6835 44.2051 36.0771C43.9167 36.4712 43.5599 36.6631 43.2129 36.6631C42.8659 36.663 42.509 36.4712 42.2207 36.0771C41.9327 35.6835 41.7393 35.1155 41.7393 34.4658C41.7393 33.8159 41.9326 33.2472 42.2207 32.8535C42.509 32.4596 42.8659 32.2686 43.2129 32.2686Z" fill="#4FC3F7" stroke="#4FC3F7"/>
<path d="M55.7119 23.8779C56.0589 23.8779 56.4158 24.069 56.7041 24.4629C56.9922 24.8566 57.1855 25.4253 57.1855 26.0752C57.1855 26.7249 56.9921 27.2928 56.7041 27.6865C56.4157 28.0806 56.059 28.2725 55.7119 28.2725C55.3649 28.2724 55.0081 28.0805 54.7197 27.6865C54.4317 27.2929 54.2383 26.7248 54.2383 26.0752C54.2383 25.4253 54.4316 24.8566 54.7197 24.4629C55.0081 24.069 55.365 23.878 55.7119 23.8779Z" fill="#4FC3F7" stroke="#4FC3F7"/>
<path d="M49.792 9.49365C51.9655 9.49365 53.8975 11.7152 53.8975 14.688C53.8973 17.6605 51.9654 19.8813 49.792 19.8813C47.6186 19.8813 45.6867 17.6605 45.6865 14.688C45.6865 11.7152 47.6185 9.49368 49.792 9.49365Z" fill="#4FC3F7" stroke="#4FC3F7"/>
<path d="M55.7119 40.6602C56.0589 40.6602 56.4158 40.8512 56.7041 41.2451C56.9922 41.6388 57.1855 42.2075 57.1855 42.8574C57.1855 43.5071 56.9921 44.0751 56.7041 44.4688C56.4157 44.8628 56.059 45.0547 55.7119 45.0547C55.3649 45.0546 55.0081 44.8628 54.7197 44.4688C54.4317 44.0751 54.2383 43.5071 54.2383 42.8574C54.2383 42.2075 54.4316 41.6388 54.7197 41.2451C55.0081 40.8512 55.365 40.6602 55.7119 40.6602Z" fill="#4FC3F7" stroke="#4FC3F7"/>
<path d="M55.7119 32.2686C56.0589 32.2686 56.4158 32.4596 56.7041 32.8535C56.9922 33.2472 57.1855 33.8159 57.1855 34.4658C57.1855 35.1155 56.9921 35.6835 56.7041 36.0771C56.4157 36.4712 56.059 36.6631 55.7119 36.6631C55.3649 36.663 55.0081 36.4712 54.7197 36.0771C54.4317 35.6835 54.2383 35.1155 54.2383 34.4658C54.2383 33.8159 54.4316 33.2472 54.7197 32.8535C55.0081 32.4596 55.365 32.2686 55.7119 32.2686Z" fill="#4FC3F7" stroke="#4FC3F7"/>
</svg>
